<mxfile host="app.diagrams.net" agent="Mozilla/5.0 (Windows NT 10.0; Win64; x64) AppleWebKit/537.36 (KHTML, like Gecko) Chrome/135.0.0.0 Safari/537.36 Edg/135.0.0.0" version="26.2.12">
  <diagram name="Page-1" id="ewsz53idRUT3qrTNFcwD">
    <mxGraphModel>
      <root>
        <mxCell id="0" />
        <mxCell id="1" parent="0" />
        <mxCell id="2" value="Start" style="whiteSpace=wrap;strokeWidth=2;" vertex="1" parent="1">
          <mxGeometry x="1347" y="8" width="95" height="54" as="geometry" />
        </mxCell>
        <mxCell id="3" value="Recent Search Button" style="whiteSpace=wrap;strokeWidth=2;" vertex="1" parent="1">
          <mxGeometry x="1287" y="112" width="214" height="54" as="geometry" />
        </mxCell>
        <mxCell id="4" value="Elastic Search Result Row" style="whiteSpace=wrap;strokeWidth=2;" vertex="1" parent="1">
          <mxGeometry x="1551" y="112" width="242" height="54" as="geometry" />
        </mxCell>
        <mxCell id="5" value="Direct Employer Login" style="whiteSpace=wrap;strokeWidth=2;" vertex="1" parent="1">
          <mxGeometry x="1071" y="216" width="218" height="54" as="geometry" />
        </mxCell>
        <mxCell id="6" value="Impersonate Employer One" style="whiteSpace=wrap;strokeWidth=2;" vertex="1" parent="1">
          <mxGeometry x="1407" y="216" width="254" height="54" as="geometry" />
        </mxCell>
        <mxCell id="7" value="API Calls" style="whiteSpace=wrap;strokeWidth=2;" vertex="1" parent="1">
          <mxGeometry x="1330" y="320" width="122" height="54" as="geometry" />
        </mxCell>
        <mxCell id="8" value="IsQuarterlyCertified" style="whiteSpace=wrap;strokeWidth=2;" vertex="1" parent="1">
          <mxGeometry x="8" y="424" width="203" height="54" as="geometry" />
        </mxCell>
        <mxCell id="9" value="GetEmployerData" style="whiteSpace=wrap;strokeWidth=2;" vertex="1" parent="1">
          <mxGeometry x="261" y="424" width="186" height="54" as="geometry" />
        </mxCell>
        <mxCell id="10" value="GetOutStandingBalance" style="whiteSpace=wrap;strokeWidth=2;" vertex="1" parent="1">
          <mxGeometry x="496" y="424" width="229" height="54" as="geometry" />
        </mxCell>
        <mxCell id="11" value="GetTPAList" style="whiteSpace=wrap;strokeWidth=2;" vertex="1" parent="1">
          <mxGeometry x="775" y="424" width="137" height="54" as="geometry" />
        </mxCell>
        <mxCell id="12" value="GetEmployerWorkItemData" style="whiteSpace=wrap;strokeWidth=2;" vertex="1" parent="1">
          <mxGeometry x="963" y="424" width="254" height="54" as="geometry" />
        </mxCell>
        <mxCell id="13" value="GetEmprDetailsForHeader" style="whiteSpace=wrap;strokeWidth=2;" vertex="1" parent="1">
          <mxGeometry x="1267" y="424" width="247" height="54" as="geometry" />
        </mxCell>
        <mxCell id="14" value="GetEAuditStatusUsingID" style="whiteSpace=wrap;strokeWidth=2;" vertex="1" parent="1">
          <mxGeometry x="1564" y="424" width="229" height="54" as="geometry" />
        </mxCell>
        <mxCell id="15" value="AddLastSearch" style="whiteSpace=wrap;strokeWidth=2;" vertex="1" parent="1">
          <mxGeometry x="1843" y="424" width="164" height="54" as="geometry" />
        </mxCell>
        <mxCell id="16" value="VCPOptionEligibilityCheck" style="whiteSpace=wrap;strokeWidth=2;" vertex="1" parent="1">
          <mxGeometry x="2057" y="424" width="246" height="54" as="geometry" />
        </mxCell>
        <mxCell id="17" value="GetWageSubmHistory" style="whiteSpace=wrap;strokeWidth=2;" vertex="1" parent="1">
          <mxGeometry x="2353" y="424" width="213" height="54" as="geometry" />
        </mxCell>
        <mxCell id="18" value="GetDelinquentAndAssessedQuarters" style="whiteSpace=wrap;strokeWidth=2;" vertex="1" parent="1">
          <mxGeometry x="2616" y="424" width="315" height="54" as="geometry" />
        </mxCell>
        <mxCell id="19" value="" style="curved=1;startArrow=none;endArrow=block;exitX=0.5;exitY=1;entryX=0.5;entryY=0;" edge="1" parent="1" source="2" target="3">
          <mxGeometry relative="1" as="geometry">
            <Array as="points" />
          </mxGeometry>
        </mxCell>
        <mxCell id="20" value="" style="curved=1;startArrow=none;endArrow=block;exitX=1;exitY=0.66;entryX=0.5;entryY=0;" edge="1" parent="1" source="2" target="4">
          <mxGeometry relative="1" as="geometry">
            <Array as="points">
              <mxPoint x="1672" y="87" />
            </Array>
          </mxGeometry>
        </mxCell>
        <mxCell id="21" value="" style="curved=1;startArrow=none;endArrow=block;exitX=0;exitY=0.71;entryX=0.5;entryY=0;" edge="1" parent="1" source="2" target="5">
          <mxGeometry relative="1" as="geometry">
            <Array as="points">
              <mxPoint x="1180" y="87" />
            </Array>
          </mxGeometry>
        </mxCell>
        <mxCell id="22" value="" style="curved=1;startArrow=none;endArrow=block;exitX=0.5;exitY=1;entryX=0.21;entryY=0;" edge="1" parent="1" source="3" target="6">
          <mxGeometry relative="1" as="geometry">
            <Array as="points">
              <mxPoint x="1394" y="191" />
            </Array>
          </mxGeometry>
        </mxCell>
        <mxCell id="23" value="" style="curved=1;startArrow=none;endArrow=block;exitX=0.5;exitY=1;entryX=0.78;entryY=0;" edge="1" parent="1" source="4" target="6">
          <mxGeometry relative="1" as="geometry">
            <Array as="points">
              <mxPoint x="1672" y="191" />
            </Array>
          </mxGeometry>
        </mxCell>
        <mxCell id="24" value="" style="curved=1;startArrow=none;endArrow=block;exitX=0.5;exitY=1;entryX=0;entryY=0.22;" edge="1" parent="1" source="5" target="7">
          <mxGeometry relative="1" as="geometry">
            <Array as="points">
              <mxPoint x="1180" y="295" />
            </Array>
          </mxGeometry>
        </mxCell>
        <mxCell id="25" value="" style="curved=1;startArrow=none;endArrow=block;exitX=0;exitY=0.55;entryX=0.5;entryY=0;" edge="1" parent="1" source="7" target="8">
          <mxGeometry relative="1" as="geometry">
            <Array as="points">
              <mxPoint x="109" y="399" />
            </Array>
          </mxGeometry>
        </mxCell>
        <mxCell id="26" value="" style="curved=1;startArrow=none;endArrow=block;exitX=0;exitY=0.56;entryX=0.5;entryY=0;" edge="1" parent="1" source="7" target="9">
          <mxGeometry relative="1" as="geometry">
            <Array as="points">
              <mxPoint x="353" y="399" />
            </Array>
          </mxGeometry>
        </mxCell>
        <mxCell id="27" value="" style="curved=1;startArrow=none;endArrow=block;exitX=0;exitY=0.58;entryX=0.5;entryY=0;" edge="1" parent="1" source="7" target="10">
          <mxGeometry relative="1" as="geometry">
            <Array as="points">
              <mxPoint x="611" y="399" />
            </Array>
          </mxGeometry>
        </mxCell>
        <mxCell id="28" value="" style="curved=1;startArrow=none;endArrow=block;exitX=0;exitY=0.61;entryX=0.5;entryY=0;" edge="1" parent="1" source="7" target="11">
          <mxGeometry relative="1" as="geometry">
            <Array as="points">
              <mxPoint x="844" y="399" />
            </Array>
          </mxGeometry>
        </mxCell>
        <mxCell id="29" value="" style="curved=1;startArrow=none;endArrow=block;exitX=0;exitY=0.69;entryX=0.5;entryY=0;" edge="1" parent="1" source="7" target="12">
          <mxGeometry relative="1" as="geometry">
            <Array as="points">
              <mxPoint x="1090" y="399" />
            </Array>
          </mxGeometry>
        </mxCell>
        <mxCell id="30" value="" style="curved=1;startArrow=none;endArrow=block;exitX=0.5;exitY=1;entryX=0.5;entryY=0;" edge="1" parent="1" source="7" target="13">
          <mxGeometry relative="1" as="geometry">
            <Array as="points" />
          </mxGeometry>
        </mxCell>
        <mxCell id="31" value="" style="curved=1;startArrow=none;endArrow=block;exitX=0.99;exitY=0.7;entryX=0.5;entryY=0;" edge="1" parent="1" source="7" target="14">
          <mxGeometry relative="1" as="geometry">
            <Array as="points">
              <mxPoint x="1678" y="399" />
            </Array>
          </mxGeometry>
        </mxCell>
        <mxCell id="32" value="" style="curved=1;startArrow=none;endArrow=block;exitX=0.99;exitY=0.61;entryX=0.5;entryY=0;" edge="1" parent="1" source="7" target="15">
          <mxGeometry relative="1" as="geometry">
            <Array as="points">
              <mxPoint x="1925" y="399" />
            </Array>
          </mxGeometry>
        </mxCell>
        <mxCell id="33" value="" style="curved=1;startArrow=none;endArrow=block;exitX=0.99;exitY=0.57;entryX=0.5;entryY=0;" edge="1" parent="1" source="7" target="16">
          <mxGeometry relative="1" as="geometry">
            <Array as="points">
              <mxPoint x="2180" y="399" />
            </Array>
          </mxGeometry>
        </mxCell>
        <mxCell id="34" value="" style="curved=1;startArrow=none;endArrow=block;exitX=0.99;exitY=0.55;entryX=0.5;entryY=0;" edge="1" parent="1" source="7" target="17">
          <mxGeometry relative="1" as="geometry">
            <Array as="points">
              <mxPoint x="2460" y="399" />
            </Array>
          </mxGeometry>
        </mxCell>
        <mxCell id="35" value="" style="curved=1;startArrow=none;endArrow=block;exitX=0.99;exitY=0.54;entryX=0.5;entryY=0;" edge="1" parent="1" source="7" target="18">
          <mxGeometry relative="1" as="geometry">
            <Array as="points">
              <mxPoint x="2774" y="399" />
            </Array>
          </mxGeometry>
        </mxCell>
        <mxCell id="36" value="" style="curved=1;startArrow=none;endArrow=block;exitX=0.5;exitY=1;entryX=0.99;entryY=0.09;" edge="1" parent="1" source="6" target="7">
          <mxGeometry relative="1" as="geometry">
            <Array as="points">
              <mxPoint x="1533" y="295" />
            </Array>
          </mxGeometry>
        </mxCell>
      </root>
    </mxGraphModel>
  </diagram>
</mxfile>
